PathFileType	4	(X/Y/Z)	C:\Users\xlb\Desktop\20210112\20210112\bx_n_10_902.trc
DataRate	CameraRate	NumFrames	NumMarkers	Units	OrigDataRate	OrigDataStartFrame	OrigNumFrames
50.00	50.00	       8	43	mm	50.00	122	       484
Frame#	Time	Top.Head			R.Acromium			L.Acromium			Sternum			R.ASIS			L.ASIS			V.Sacral			R.Thigh.Upper			R.Thigh.Front			R.Thigh.Rear			R.Knee.Lat			R.Knee.Med			R.Shank.Upper			R.Shank.Front			R.Shank.Rear			R.Ankle.Lat			R.Midfoot.Lat			R.Toe.Lat			R.Toe.Tip			R.Toe.Med			R.Ankle.Med			R.Midfoot.Sup			R.Heel			L.Thigh.Upper			L.Thigh.Front			L.Thigh.Rear			L.Knee.Lat			L.Knee.Med			L.Shank.Upper			L.Shank.Front			L.Shank.Rear			L.Ankle.Lat			L.Midfoot.Lat			L.Toe.Lat			L.Toe.Tip			L.Toe.Med			L.Ankle.Med			L.Midfoot.Sup			L.Heel			origin1 front left			origin2 front right			origin 3 back right			origin 4 back leftt			
		X1	Y1	Z1	X2	Y2	Z2	X3	Y3	Z3	X4	Y4	Z4	X5	Y5	Z5	X6	Y6	Z6	X7	Y7	Z7	X8	Y8	Z8	X9	Y9	Z9	X10	Y10	Z10	X11	Y11	Z11	X12	Y12	Z12	X13	Y13	Z13	X14	Y14	Z14	X15	Y15	Z15	X16	Y16	Z16	X17	Y17	Z17	X18	Y18	Z18	X19	Y19	Z19	X20	Y20	Z20	X21	Y21	Z21	X22	Y22	Z22	X23	Y23	Z23	X24	Y24	Z24	X25	Y25	Z25	X26	Y26	Z26	X27	Y27	Z27	X28	Y28	Z28	X29	Y29	Z29	X30	Y30	Z30	X31	Y31	Z31	X32	Y32	Z32	X33	Y33	Z33	X34	Y34	Z34	X35	Y35	Z35	X36	Y36	Z36	X37	Y37	Z37	X38	Y38	Z38	X39	Y39	Z39	X40	Y40	Z40	X41	Y41	Z41	X42	Y42	Z42	X43	Y43	Z43	

122	2.420	-142.46265	102.01688	1050.24097	-349.75964	-58.03574	925.06488	-373.90094	245.25771	908.55054	-561.14551	90.65235	862.34045	-814.80261	-21.21148	949.04858	-802.61414	224.16797	968.80322	-953.75964	84.63908	1093.31555	-889.71088	-80.72527	850.48602	-796.51355	-11.92810	798.06628	-874.48511	-72.33488	735.15192	-844.78687	-37.93390	601.42419	-818.48346	72.46436	561.48639	-838.38477	-34.60367	552.97668	-772.74200	15.49594	522.79675	-853.84302	-46.62727	464.63577	-762.35327	-20.18196	201.48398	-648.04163	-67.28107	161.62576	-607.04382	-75.48653	156.97720	-548.72577	-26.95181	163.37689	-596.77753	26.44357	166.83748	-670.99261	53.00803	163.59619	-725.59259	67.77914	220.98891	-791.76447	40.47144	172.01830	-904.36365	283.65610	857.78949	-797.10767	201.97607	806.57593	-873.99634	280.75104	722.78223	-871.98651	254.68944	619.07202	-824.48938	143.01031	564.04358	-852.98016	249.87114	557.47736	-791.28241	204.12265	533.86151	-867.43457	265.61163	477.80524	-772.65430	233.54509	200.79521	-657.32556	298.35706	158.42038	-621.02271	305.06400	158.56075	-556.72034	252.02089	162.79805	-593.43298	217.34344	173.07413	-724.00049	159.54453	222.70418	-677.09625	175.67279	163.72292	-799.04309	186.65903	178.81578	-527.99695	303.89105	146.20433	-518.03235	-72.69625	142.89111	-876.08807	-78.20122	140.75964	-882.78271	295.68079	144.59425	
123	2.440	-144.09961	103.74499	1054.89636	-350.49774	-57.56815	928.84442	-375.31110	246.43825	911.78668	-561.90521	90.56458	864.92969	-814.79803	-21.14384	949.78723	-803.98639	224.38104	968.95135	-955.53711	84.54630	1092.81250	-890.77417	-80.76479	850.48114	-797.35498	-11.85678	797.94501	-875.23004	-72.31543	734.94690	-845.36969	-37.87245	601.15680	-819.09949	72.40138	561.32135	-838.85980	-34.41844	552.76813	-773.03052	15.83424	522.89960	-854.18103	-46.60457	464.53741	-762.36975	-20.07461	201.43486	-648.01068	-67.14178	161.80621	-607.05133	-75.46602	157.11418	-548.74011	-26.91844	163.37332	-596.80951	26.43603	166.78383	-671.02057	53.12698	163.59697	-725.59393	67.88785	220.79730	-791.74030	40.54657	171.98201	-905.75476	283.53317	857.40771	-798.32410	202.22948	806.29736	-875.26196	280.71402	722.42224	-873.17346	254.78250	618.73730	-825.48737	143.01112	563.83295	-854.08282	249.86537	557.17731	-792.24878	204.20168	533.58551	-868.33948	265.55786	477.39334	-772.71155	233.43166	200.63756	-657.34717	298.31870	158.41620	-621.09094	305.01190	158.56335	-556.75623	252.01434	162.83858	-593.46997	217.33066	173.09444	-724.16571	159.52303	222.68463	-677.09827	175.65935	163.72565	-799.06903	186.61589	178.73468	-527.99756	303.85104	146.16072	-518.03357	-72.73030	142.92076	-876.12469	-78.22890	140.75259	-882.72986	295.72855	144.56171	
124	2.460	-145.50067	105.61871	1059.50549	-351.28754	-57.11628	932.87805	-376.84186	247.67972	915.32581	-562.64294	90.47972	867.71057	-814.76538	-21.07309	950.55353	-805.20972	224.54570	969.20862	-957.21533	84.45813	1092.32849	-891.58325	-80.73580	850.44128	-798.09302	-11.91824	797.84839	-875.86517	-72.40785	734.80237	-845.92139	-37.86835	600.89374	-819.63159	72.27182	561.18958	-839.24329	-34.38146	552.58057	-773.44153	16.15561	522.85425	-854.44501	-46.73481	464.54379	-762.38898	-20.01495	201.39952	-648.00793	-67.07563	161.88832	-607.04871	-75.45502	157.18918	-548.74835	-26.89169	163.38277	-596.86694	26.38993	166.78149	-671.05170	53.12321	163.58510	-725.76208	67.86615	220.84528	-791.74170	40.55216	171.95103	-906.92023	283.36581	857.10010	-799.32361	202.44566	806.15381	-876.32843	280.55157	722.08929	-874.15552	254.80202	618.44312	-826.27747	142.94623	563.73755	-855.04437	249.72792	556.88806	-793.07513	204.24997	533.37158	-869.13135	265.41064	477.08801	-772.75757	233.32469	200.54453	-657.35913	298.26013	158.42097	-621.16602	304.98596	158.56955	-556.79590	252.01215	162.89717	-593.50201	217.33949	173.12260	-724.24719	159.53419	222.69194	-677.10083	175.64558	163.72954	-799.08929	186.52611	178.61534	-528.00500	303.81076	146.16129	-518.03845	-72.76286	142.92010	-876.13599	-78.23284	140.76871	-882.66028	295.82251	144.55704	
125	2.480	-146.74255	107.58990	1064.20105	-352.13101	-56.68164	937.16669	-378.46033	248.96983	919.19800	-563.35754	90.39796	870.68262	-814.70428	-20.99965	951.34637	-806.27808	224.64751	969.60205	-958.76868	84.41754	1091.84937	-892.09741	-80.65385	850.30688	-798.72949	-12.02286	797.75275	-876.35474	-72.52795	734.67670	-846.37006	-37.88506	600.68341	-820.07495	72.10815	561.05603	-839.56726	-34.52551	552.43091	-773.96698	16.25179	522.66254	-854.63519	-46.95078	464.55835	-762.41089	-20.01621	201.39111	-648.00793	-67.03233	161.87865	-607.03931	-75.44078	157.22900	-548.76581	-26.87809	163.40810	-596.87500	26.38318	166.77310	-670.95831	52.96117	163.38391	-726.16742	67.76181	221.21138	-791.77637	40.51294	171.94273	-907.85876	283.12683	856.83203	-800.11487	202.50887	806.04382	-877.22028	280.28882	721.74969	-874.99927	254.68288	618.12897	-826.92450	142.84834	563.71887	-855.89172	249.52707	556.61230	-793.80164	204.23796	533.22968	-869.82373	265.24890	476.85776	-772.79907	233.25935	200.52919	-657.37744	298.19781	158.40501	-621.19379	305.00299	158.59355	-556.82794	252.00241	162.94250	-593.53259	217.36990	173.14278	-724.27954	159.56503	222.72102	-677.08679	175.62886	163.73857	-799.10742	186.40221	178.47774	-528.01477	303.79312	146.20200	-518.01196	-72.79459	142.89929	-876.12109	-78.20992	140.78569	-882.58618	295.93179	144.57776	
126	2.500	-147.88300	109.60294	1069.13989	-353.03018	-56.26574	941.71069	-380.11743	250.29221	923.44678	-564.04773	90.31955	873.84503	-814.61462	-20.92392	952.16467	-807.20398	224.66287	970.15070	-960.21399	84.40905	1091.35779	-892.34290	-80.57416	850.08514	-799.20020	-12.10313	797.67047	-876.66309	-72.60605	734.55005	-846.66217	-37.90255	600.52875	-820.44525	71.95235	560.89160	-839.82935	-34.79965	552.35345	-774.49200	16.07705	522.42639	-854.74530	-47.16579	464.51434	-762.43005	-20.04443	201.39735	-648.00525	-66.95050	161.81535	-607.01379	-75.42384	157.26494	-548.79260	-26.88020	163.44679	-596.78339	26.48770	166.70265	-670.51514	52.66270	162.74036	-726.76373	67.66088	221.80399	-791.81689	40.46860	171.94762	-908.62653	282.78229	856.55402	-800.72113	202.35318	805.90375	-877.97021	279.97104	721.43079	-875.75110	254.46545	617.81873	-827.52979	142.71657	563.70837	-856.68225	249.33322	556.38879	-794.44495	204.15744	533.14056	-870.44629	265.10132	476.69604	-772.85162	233.23314	200.56488	-657.40186	298.15222	158.37201	-621.16736	305.05206	158.64313	-556.84814	251.98344	162.96262	-593.54938	217.39276	173.13699	-724.31482	159.58131	222.77820	-677.06885	175.61497	163.74246	-799.12378	186.28377	178.36523	-528.02020	303.80399	146.25499	-517.93359	-72.82773	142.87152	-876.09619	-78.18134	140.78770	-882.51929	296.01035	144.60184	
127	2.520	-148.94763	111.60011	1074.48071	-353.98691	-55.87008	946.51093	-381.75397	251.62900	928.12598	-564.71222	90.24467	877.19714	-814.49609	-20.84631	953.00751	-808.04956	224.56670	970.83405	-961.62659	84.32370	1090.86328	-892.39032	-80.54063	849.84521	-799.47302	-12.15762	797.63336	-876.80219	-72.65725	734.43079	-846.81848	-37.95578	600.41840	-820.75244	71.80988	560.71753	-840.01849	-35.10435	552.34808	-774.87781	15.75785	522.24396	-854.78711	-47.33449	464.39258	-762.43854	-20.06605	201.39236	-648.01941	-66.82420	161.75012	-606.95856	-75.40038	157.30516	-548.81165	-26.88675	163.48293	-596.62793	26.68031	166.59053	-669.60315	52.28913	161.60002	-727.39758	67.60454	222.41870	-791.83252	40.43969	171.94640	-909.31018	282.31662	856.26733	-801.20062	202.01704	805.74530	-878.61755	279.62451	721.22565	-876.41595	254.22124	617.57849	-828.10754	142.55397	563.64679	-857.43250	249.16612	556.25110	-794.99194	204.03369	533.11578	-871.02551	264.92084	476.60269	-772.93042	233.22763	200.60863	-657.42316	298.13968	158.33925	-621.12054	305.10049	158.69310	-556.85828	251.95871	162.96123	-593.54041	217.39774	173.06987	-724.38232	159.56056	222.86449	-677.07080	175.61395	163.74901	-799.13879	186.20770	178.29752	-528.01819	303.83475	146.29785	-517.83136	-72.84743	142.84628	-876.08087	-78.16206	140.78261	-882.46289	296.04581	144.62383	
128	2.540	-149.97461	113.51414	1080.39758	-355.00327	-55.49618	951.56824	-383.30847	252.96088	933.29047	-565.34973	90.17355	880.73816	-814.34845	-20.76723	953.87372	-808.87494	224.37573	971.61560	-963.08496	84.03185	1090.39905	-892.32666	-80.58447	849.65845	-799.60681	-12.21409	797.61700	-876.82001	-72.75864	734.33124	-846.88892	-38.10754	600.34064	-820.99536	71.64046	560.57965	-840.14752	-35.36877	552.35907	-775.03162	15.47460	522.15637	-854.79095	-47.47981	464.21768	-762.44012	-20.07564	201.34993	-648.05066	-66.72713	161.75662	-606.88086	-75.37010	157.33324	-548.80823	-26.88248	163.49077	-596.49261	26.85627	166.49699	-668.76923	52.01572	160.62517	-727.84515	67.56131	222.81194	-791.81439	40.42194	171.93118	-909.98767	281.73233	856.03217	-801.63745	201.58923	805.60516	-879.20642	279.21878	721.18890	-876.99908	253.96309	617.42993	-828.57983	142.37733	563.52264	-858.08008	248.99323	556.18347	-795.45026	203.88947	533.17151	-871.57019	264.64432	476.55496	-773.04803	233.22366	200.64865	-657.44073	298.15582	158.31200	-621.07660	305.12262	158.71048	-556.88037	251.93031	162.94989	-593.51501	217.40578	172.93863	-724.45667	159.51436	222.96527	-677.09619	175.62964	163.78508	-799.15289	186.16347	178.26424	-528.00885	303.86804	146.32323	-517.77527	-72.82677	142.82697	-876.08368	-78.15800	140.78334	-882.42035	296.06476	144.65756	
129	2.560	-151.03290	115.25487	1087.04785	-356.08115	-55.14554	956.88342	-384.72800	254.26210	938.97479	-565.95898	90.10639	884.46753	-814.17151	-20.68707	954.76233	-809.67004	224.15984	972.45825	-964.58514	83.51346	1089.98706	-892.20032	-80.73817	849.52649	-799.69556	-12.29382	797.55920	-876.77045	-72.96793	734.25409	-846.91937	-38.38723	600.27277	-821.18835	71.37276	560.48633	-840.25562	-35.61056	552.32764	-774.97870	15.29068	522.16187	-854.79401	-47.66703	464.03705	-762.45966	-20.08943	201.26660	-648.06927	-66.75739	161.89867	-606.81042	-75.33443	157.31702	-548.78857	-26.87008	163.46651	-596.42798	26.94290	166.45563	-669.95703	52.32523	161.86307	-727.85608	67.45334	222.74216	-791.77240	40.39964	171.90556	-910.69122	281.04922	855.88806	-802.09827	201.13051	805.49805	-879.75348	278.70898	721.25958	-877.53992	253.67131	617.34802	-828.91901	142.17453	563.36615	-858.59192	248.75021	556.11963	-795.87170	203.72002	533.26404	-872.07257	264.25522	476.50531	-773.19690	233.19798	200.69960	-657.46545	298.16422	158.27370	-621.04004	305.10764	158.68982	-556.94196	251.90344	162.93770	-593.50049	217.43526	172.80844	-724.48718	159.45648	223.05928	-677.12054	175.65233	163.85825	-799.16461	186.09776	178.25238	-527.99933	303.88086	146.32698	-517.80182	-72.76996	142.81099	-876.09875	-78.17126	140.78790	-882.39880	296.09045	144.70334	
